include "hUGE.inc"

SECTION "song_title Song Data", ROMX

song_title::
db 3
dw order_cnt
dw order1, order2, order3, order4
dw duty_instruments, wave_instruments, noise_instruments
dw routines
dw waves

order_cnt: db 44
order1: dw P0,P4,P0,P4,P0,P4,P8,P9,P10,P11,P12,P13,P14,P17,P18,P19,P0,P4,P20,P21,P22,P23
order2: dw P1,P1,P1,P1,P1,P1,P1,P1,P1,P1,P1,P1,P1,P1,P1,P1,P1,P1,P1,P1,P1,P1
order3: dw P2,P5,P2,P5,P2,P5,P15,P16,P2,P5,P2,P5,P2,P5,P2,P5,P2,P5,P2,P5,P15,P16
order4: dw P3,P3,P3,P6,P7,P7,P7,P7,P7,P7,P7,P7,P7,P7,P7,P7,P7,P7,P24,P24,P24,P25

P0:
 dn F_5,1,$047
 dn F_5,2,$07B
 dn F_5,3,$047
 dn F_5,4,$07B
 dn F_5,1,$047
 dn F_5,2,$07B
 dn F_5,3,$047
 dn F_5,4,$07B
 dn F_5,1,$047
 dn F_5,2,$07B
 dn F_5,3,$047
 dn F_5,4,$07B
 dn F_5,1,$047
 dn F_5,2,$07B
 dn F_5,1,$047
 dn F_5,2,$07B
 dn F_5,3,$047
 dn F_5,4,$07B
 dn F_5,1,$047
 dn F_5,2,$07B
 dn F_5,1,$047
 dn F_5,2,$07B
 dn F_5,3,$047
 dn F_5,4,$07B
 dn F_5,1,$047
 dn F_5,2,$07B
 dn F_5,3,$047
 dn F_5,4,$07B
 dn F_5,1,$047
 dn F_5,2,$07B
 dn F_5,3,$047
 dn F_5,4,$07B
 dn F_5,1,$047
 dn F_5,2,$07B
 dn F_5,3,$047
 dn F_5,4,$07B
 dn F_5,1,$047
 dn F_5,2,$07B
 dn F_5,3,$047
 dn F_5,4,$07B
 dn F_5,1,$047
 dn F_5,2,$07B
 dn F_5,3,$047
 dn F_5,4,$07B
 dn F_5,1,$047
 dn F_5,2,$07B
 dn F_5,1,$047
 dn F_5,2,$07B
 dn F_5,3,$047
 dn F_5,4,$07B
 dn F_5,1,$047
 dn F_5,2,$07B
 dn F_5,1,$047
 dn F_5,2,$07B
 dn F_5,3,$047
 dn F_5,4,$07B
 dn F_5,1,$047
 dn F_5,2,$07B
 dn F_5,3,$047
 dn F_5,4,$07B
 dn F_5,1,$047
 dn F_5,2,$07B
 dn F_5,3,$047
 dn F_5,4,$07B

P1:
 dn ___,0,$000
 dn ___,0,$000
 dn ___,0,$000
 dn ___,0,$000
 dn ___,0,$000
 dn ___,0,$000
 dn ___,0,$000
 dn ___,0,$000
 dn ___,0,$000
 dn ___,0,$000
 dn ___,0,$000
 dn ___,0,$000
 dn ___,0,$000
 dn ___,0,$000
 dn ___,0,$000
 dn ___,0,$000
 dn ___,0,$000
 dn ___,0,$000
 dn ___,0,$000
 dn ___,0,$000
 dn ___,0,$000
 dn ___,0,$000
 dn ___,0,$000
 dn ___,0,$000
 dn ___,0,$000
 dn ___,0,$000
 dn ___,0,$000
 dn ___,0,$000
 dn ___,0,$000
 dn ___,0,$000
 dn ___,0,$000
 dn ___,0,$000
 dn ___,0,$000
 dn ___,0,$000
 dn ___,0,$000
 dn ___,0,$000
 dn ___,0,$000
 dn ___,0,$000
 dn ___,0,$000
 dn ___,0,$000
 dn ___,0,$000
 dn ___,0,$000
 dn ___,0,$000
 dn ___,0,$000
 dn ___,0,$000
 dn ___,0,$000
 dn ___,0,$000
 dn ___,0,$000
 dn ___,0,$000
 dn ___,0,$000
 dn ___,0,$000
 dn ___,0,$000
 dn ___,0,$000
 dn ___,0,$000
 dn ___,0,$000
 dn ___,0,$000
 dn ___,0,$000
 dn ___,0,$000
 dn ___,0,$000
 dn ___,0,$000
 dn ___,0,$000
 dn ___,0,$000
 dn ___,0,$000
 dn ___,0,$000

P2:
 dn F_4,1,$2FF
 dn F_3,2,$000
 dn ___,0,$C08
 dn ___,0,$000
 dn F_3,2,$000
 dn ___,0,$000
 dn ___,0,$C08
 dn ___,0,$000
 dn F_4,1,$2FF
 dn F_3,2,$000
 dn ___,0,$C08
 dn ___,0,$000
 dn F_3,2,$000
 dn ___,0,$C08
 dn F_3,2,$000
 dn ___,0,$C08
 dn F_4,1,$2FF
 dn F_3,2,$C08
 dn F_3,2,$000
 dn ___,0,$C08
 dn F_3,2,$000
 dn ___,0,$C08
 dn ___,0,$000
 dn ___,0,$000
 dn F_4,1,$2FF
 dn F_3,2,$000
 dn ___,0,$C08
 dn ___,0,$000
 dn F_3,2,$000
 dn ___,0,$C08
 dn ___,0,$000
 dn ___,0,$000
 dn F_4,1,$2FF
 dn F_3,2,$000
 dn ___,0,$C08
 dn ___,0,$000
 dn F_3,2,$000
 dn ___,0,$000
 dn ___,0,$C08
 dn ___,0,$000
 dn F_4,1,$2FF
 dn F_3,2,$000
 dn ___,0,$C08
 dn ___,0,$000
 dn F_3,2,$000
 dn ___,0,$C08
 dn F_3,2,$000
 dn ___,0,$C08
 dn F_4,1,$2FF
 dn F_3,2,$C08
 dn F_3,2,$000
 dn ___,0,$C08
 dn F_3,2,$000
 dn ___,0,$C08
 dn ___,0,$000
 dn ___,0,$000
 dn F_4,1,$2FF
 dn F_3,2,$000
 dn ___,0,$C08
 dn ___,0,$000
 dn F_3,2,$000
 dn ___,0,$C08
 dn ___,0,$000
 dn ___,0,$000

P3:
 dn F_7,1,$000
 dn A_6,4,$000
 dn ___,0,$000
 dn ___,0,$000
 dn ___,0,$000
 dn ___,0,$000
 dn ___,0,$000
 dn ___,0,$000
 dn F_7,1,$000
 dn A_6,4,$000
 dn ___,0,$000
 dn ___,0,$000
 dn ___,0,$000
 dn ___,0,$000
 dn ___,0,$000
 dn ___,0,$000
 dn F_7,1,$000
 dn A_6,4,$000
 dn ___,0,$000
 dn ___,0,$000
 dn ___,0,$000
 dn ___,0,$000
 dn ___,0,$000
 dn ___,0,$000
 dn F_7,1,$000
 dn A_6,4,$000
 dn ___,0,$000
 dn ___,0,$000
 dn ___,0,$000
 dn ___,0,$000
 dn ___,0,$000
 dn ___,0,$000
 dn F_7,1,$000
 dn A_6,4,$000
 dn ___,0,$000
 dn ___,0,$000
 dn ___,0,$000
 dn ___,0,$000
 dn ___,0,$000
 dn ___,0,$000
 dn F_7,1,$000
 dn A_6,4,$000
 dn ___,0,$000
 dn ___,0,$000
 dn ___,0,$000
 dn ___,0,$000
 dn ___,0,$000
 dn ___,0,$000
 dn F_7,1,$000
 dn A_6,4,$000
 dn ___,0,$000
 dn ___,0,$000
 dn ___,0,$000
 dn ___,0,$000
 dn ___,0,$000
 dn ___,0,$000
 dn F_7,1,$000
 dn A_6,4,$000
 dn ___,0,$000
 dn ___,0,$000
 dn ___,0,$000
 dn ___,0,$000
 dn ___,0,$000
 dn ___,0,$000

P4:
 dn E_5,1,$037
 dn E_5,2,$07A
 dn E_5,3,$037
 dn E_5,4,$07A
 dn E_5,1,$037
 dn E_5,2,$07A
 dn E_5,3,$037
 dn E_5,4,$07A
 dn E_5,1,$037
 dn E_5,2,$07A
 dn E_5,3,$037
 dn E_5,4,$07A
 dn E_5,1,$037
 dn E_5,2,$07A
 dn E_5,1,$037
 dn E_5,2,$07A
 dn E_5,3,$037
 dn E_5,4,$07A
 dn E_5,1,$037
 dn E_5,2,$07A
 dn E_5,1,$037
 dn E_5,2,$07A
 dn E_5,3,$037
 dn E_5,4,$07A
 dn E_5,1,$037
 dn E_5,2,$07A
 dn E_5,3,$037
 dn E_5,4,$07A
 dn E_5,1,$037
 dn E_5,2,$07A
 dn E_5,3,$037
 dn E_5,4,$07A
 dn E_5,1,$037
 dn E_5,2,$07A
 dn E_5,3,$037
 dn E_5,4,$07A
 dn E_5,1,$037
 dn E_5,2,$07A
 dn E_5,3,$037
 dn E_5,4,$07A
 dn E_5,1,$037
 dn E_5,2,$07A
 dn E_5,3,$037
 dn E_5,4,$07A
 dn E_5,1,$037
 dn E_5,2,$07A
 dn E_5,1,$037
 dn E_5,2,$07A
 dn E_5,3,$037
 dn E_5,4,$07A
 dn E_5,1,$037
 dn E_5,2,$07A
 dn E_5,1,$037
 dn E_5,2,$07A
 dn E_5,3,$037
 dn E_5,4,$07A
 dn E_5,1,$037
 dn E_5,2,$07A
 dn E_5,3,$037
 dn E_5,4,$07A
 dn E_5,1,$037
 dn E_5,2,$07A
 dn E_5,3,$037
 dn E_5,4,$07A

P5:
 dn E_4,1,$2FF
 dn E_3,2,$000
 dn ___,0,$C08
 dn ___,0,$000
 dn E_3,2,$000
 dn ___,0,$000
 dn ___,0,$C08
 dn ___,0,$000
 dn E_4,1,$2FF
 dn E_3,2,$000
 dn ___,0,$C08
 dn ___,0,$000
 dn E_3,2,$000
 dn ___,0,$C08
 dn E_3,2,$000
 dn ___,0,$C08
 dn E_4,1,$2FF
 dn E_3,2,$C08
 dn E_3,2,$000
 dn ___,0,$C08
 dn E_3,2,$000
 dn ___,0,$C08
 dn ___,0,$000
 dn ___,0,$000
 dn E_4,1,$2FF
 dn E_3,2,$000
 dn ___,0,$C08
 dn ___,0,$000
 dn E_3,2,$000
 dn ___,0,$C08
 dn ___,0,$000
 dn ___,0,$000
 dn E_4,1,$2FF
 dn E_3,2,$000
 dn ___,0,$C08
 dn ___,0,$000
 dn E_3,2,$000
 dn ___,0,$000
 dn ___,0,$C08
 dn ___,0,$000
 dn E_4,1,$2FF
 dn E_3,2,$000
 dn ___,0,$C08
 dn ___,0,$000
 dn E_3,2,$000
 dn ___,0,$C08
 dn E_3,2,$000
 dn ___,0,$C08
 dn E_4,1,$2FF
 dn E_3,2,$C08
 dn E_3,2,$000
 dn ___,0,$C08
 dn E_3,2,$000
 dn ___,0,$C08
 dn ___,0,$000
 dn ___,0,$000
 dn E_4,1,$2FF
 dn E_3,2,$000
 dn ___,0,$C08
 dn ___,0,$000
 dn E_3,2,$000
 dn ___,0,$C08
 dn ___,0,$000
 dn ___,0,$000

P6:
 dn F_7,1,$000
 dn A_6,4,$000
 dn ___,0,$000
 dn ___,0,$000
 dn ___,0,$000
 dn ___,0,$000
 dn ___,0,$000
 dn ___,0,$000
 dn F_7,1,$000
 dn A_6,4,$000
 dn ___,0,$000
 dn ___,0,$000
 dn ___,0,$000
 dn ___,0,$000
 dn ___,0,$000
 dn ___,0,$000
 dn F_7,1,$000
 dn A_6,4,$000
 dn ___,0,$000
 dn ___,0,$000
 dn ___,0,$000
 dn ___,0,$000
 dn ___,0,$000
 dn ___,0,$000
 dn F_7,1,$000
 dn A_6,4,$000
 dn ___,0,$000
 dn ___,0,$000
 dn ___,0,$000
 dn ___,0,$000
 dn ___,0,$000
 dn ___,0,$000
 dn F_7,1,$000
 dn A_6,4,$000
 dn ___,0,$000
 dn ___,0,$000
 dn ___,0,$000
 dn ___,0,$000
 dn ___,0,$000
 dn ___,0,$000
 dn F_7,1,$000
 dn A_6,4,$000
 dn ___,0,$000
 dn ___,0,$000
 dn ___,0,$000
 dn ___,0,$000
 dn ___,0,$000
 dn ___,0,$000
 dn F_7,1,$000
 dn A_6,4,$000
 dn ___,0,$000
 dn ___,0,$000
 dn ___,0,$000
 dn ___,0,$000
 dn ___,0,$000
 dn ___,0,$000
 dn F_7,1,$000
 dn A_5,4,$C04
 dn B_5,0,$000
 dn C#6,0,$000
 dn D#6,0,$000
 dn F_6,0,$000
 dn G_6,0,$000
 dn A_6,0,$000

P7:
 dn F_7,1,$000
 dn ___,0,$000
 dn ___,0,$000
 dn ___,0,$000
 dn A_7,2,$000
 dn ___,0,$000
 dn ___,0,$000
 dn ___,0,$000
 dn B_6,3,$000
 dn ___,0,$000
 dn ___,0,$000
 dn ___,0,$000
 dn F_7,2,$000
 dn ___,0,$000
 dn F_6,2,$000
 dn ___,0,$000
 dn F_7,2,$000
 dn ___,0,$000
 dn F_7,1,$000
 dn ___,0,$000
 dn A_7,2,$000
 dn ___,0,$000
 dn ___,0,$000
 dn ___,0,$000
 dn B_6,3,$000
 dn ___,0,$000
 dn ___,0,$000
 dn ___,0,$000
 dn F_8,1,$000
 dn ___,0,$000
 dn B_8,1,$000
 dn ___,0,$000
 dn F_7,1,$000
 dn ___,0,$000
 dn ___,0,$000
 dn ___,0,$000
 dn A_7,2,$000
 dn ___,0,$000
 dn ___,0,$000
 dn ___,0,$000
 dn B_6,3,$000
 dn ___,0,$000
 dn ___,0,$000
 dn ___,0,$000
 dn F_7,2,$000
 dn ___,0,$000
 dn F_6,2,$000
 dn ___,0,$000
 dn F_7,2,$000
 dn ___,0,$000
 dn F_7,1,$000
 dn ___,0,$000
 dn A_7,2,$000
 dn ___,0,$000
 dn ___,0,$000
 dn ___,0,$000
 dn B_6,3,$000
 dn ___,0,$000
 dn ___,0,$000
 dn ___,0,$000
 dn F_8,1,$000
 dn ___,0,$000
 dn B_8,1,$000
 dn ___,0,$000

P8:
 dn D_5,1,$037
 dn D_5,2,$07A
 dn D_5,3,$037
 dn D_5,4,$07A
 dn D_5,1,$037
 dn D_5,2,$07A
 dn D_5,3,$037
 dn D_5,4,$07A
 dn D_5,1,$037
 dn D_5,2,$07A
 dn D_5,3,$037
 dn D_5,4,$07A
 dn D_5,1,$037
 dn D_5,2,$07A
 dn D_5,1,$037
 dn D_5,2,$07A
 dn D_5,3,$037
 dn D_5,4,$07A
 dn D_5,1,$037
 dn D_5,2,$07A
 dn D_5,1,$037
 dn D_5,2,$07A
 dn D_5,3,$037
 dn D_5,4,$07A
 dn D_5,1,$037
 dn D_5,2,$07A
 dn D_5,3,$037
 dn D_5,4,$07A
 dn D_5,1,$037
 dn D_5,2,$07A
 dn D_5,3,$037
 dn D_5,4,$07A
 dn D_5,1,$037
 dn D_5,2,$07A
 dn D_5,3,$037
 dn D_5,4,$07A
 dn D_5,1,$037
 dn D_5,2,$07A
 dn D_5,3,$037
 dn D_5,4,$07A
 dn D_5,1,$037
 dn D_5,2,$07A
 dn D_5,3,$037
 dn D_5,4,$07A
 dn D_5,1,$037
 dn D_5,2,$07A
 dn D_5,1,$037
 dn D_5,2,$07A
 dn D_5,3,$037
 dn D_5,4,$07A
 dn D_5,1,$037
 dn D_5,2,$07A
 dn D_5,1,$037
 dn D_5,2,$07A
 dn D_5,3,$037
 dn D_5,4,$07A
 dn D_5,1,$037
 dn D_5,2,$07A
 dn D_5,3,$037
 dn D_5,4,$07A
 dn D_5,1,$037
 dn D_5,2,$07A
 dn D_5,3,$037
 dn D_5,4,$07A

P9:
 dn C_5,1,$047
 dn C_5,2,$07B
 dn C_5,3,$047
 dn C_5,4,$07B
 dn C_5,1,$047
 dn C_5,2,$07B
 dn C_5,3,$047
 dn C_5,4,$07B
 dn C_5,1,$047
 dn C_5,2,$07B
 dn C_5,3,$047
 dn C_5,4,$07B
 dn C_5,1,$047
 dn C_5,2,$07B
 dn C_5,1,$047
 dn C_5,2,$07B
 dn C_5,3,$047
 dn C_5,4,$07B
 dn C_5,1,$047
 dn C_5,2,$07B
 dn C_5,1,$047
 dn C_5,2,$07B
 dn C_5,3,$047
 dn C_5,4,$07B
 dn C_5,1,$047
 dn C_5,2,$07B
 dn C_5,3,$047
 dn C_5,4,$07B
 dn C_5,1,$047
 dn C_5,2,$07B
 dn C_5,3,$047
 dn C_5,4,$07B
 dn C_5,1,$047
 dn C_5,2,$07B
 dn C_5,3,$047
 dn C_5,4,$07B
 dn C_5,1,$047
 dn C_5,2,$07B
 dn C_5,3,$047
 dn C_5,4,$07B
 dn C_5,1,$047
 dn C_5,2,$07B
 dn C_5,3,$047
 dn C_5,4,$07B
 dn C_5,1,$047
 dn C_5,2,$07B
 dn C_5,1,$047
 dn C_5,2,$07B
 dn C_5,3,$047
 dn C_5,4,$07B
 dn C_5,1,$047
 dn C_5,2,$07B
 dn C_5,1,$047
 dn C_5,2,$07B
 dn C_5,3,$047
 dn C_5,4,$07B
 dn C_5,1,$047
 dn C_5,2,$07B
 dn C_5,3,$047
 dn C_5,4,$07B
 dn C_5,1,$047
 dn C_5,2,$07B
 dn C_5,3,$047
 dn C_5,4,$07B

P10:
 dn F_4,5,$00C
 dn ___,0,$000
 dn ___,0,$000
 dn ___,0,$000
 dn ___,0,$940
 dn ___,0,$000
 dn ___,0,$000
 dn ___,0,$000
 dn ___,0,$900
 dn ___,0,$000
 dn ___,0,$000
 dn ___,0,$000
 dn A_4,5,$00C
 dn ___,0,$000
 dn ___,0,$000
 dn ___,0,$000
 dn ___,0,$940
 dn ___,0,$000
 dn ___,0,$000
 dn ___,0,$000
 dn ___,0,$900
 dn ___,0,$000
 dn ___,0,$000
 dn ___,0,$000
 dn C_5,5,$00C
 dn ___,0,$000
 dn ___,0,$000
 dn ___,0,$000
 dn ___,0,$940
 dn ___,0,$000
 dn ___,0,$000
 dn ___,0,$000
 dn ___,0,$900
 dn ___,0,$000
 dn ___,0,$000
 dn ___,0,$000
 dn E_5,5,$00C
 dn ___,0,$000
 dn ___,0,$000
 dn ___,0,$000
 dn ___,0,$940
 dn ___,0,$000
 dn ___,0,$000
 dn ___,0,$000
 dn ___,0,$900
 dn ___,0,$000
 dn ___,0,$000
 dn ___,0,$000
 dn C_5,5,$00C
 dn D_5,5,$30F
 dn ___,0,$30F
 dn ___,0,$000
 dn C_5,5,$00C
 dn ___,0,$000
 dn ___,0,$000
 dn ___,0,$000
 dn B_4,5,$00C
 dn ___,0,$000
 dn ___,0,$000
 dn ___,0,$000
 dn G_4,5,$00C
 dn ___,0,$000
 dn ___,0,$000
 dn ___,0,$000

P11:
 dn E_4,5,$00C
 dn ___,0,$000
 dn ___,0,$000
 dn ___,0,$000
 dn ___,0,$940
 dn ___,0,$000
 dn ___,0,$000
 dn ___,0,$000
 dn ___,0,$900
 dn ___,0,$000
 dn ___,0,$000
 dn ___,0,$000
 dn G_4,5,$00C
 dn ___,0,$000
 dn ___,0,$000
 dn ___,0,$000
 dn ___,0,$940
 dn ___,0,$000
 dn ___,0,$000
 dn ___,0,$000
 dn ___,0,$900
 dn ___,0,$000
 dn ___,0,$000
 dn ___,0,$000
 dn B_4,5,$00C
 dn ___,0,$000
 dn ___,0,$000
 dn ___,0,$000
 dn ___,0,$940
 dn ___,0,$000
 dn ___,0,$000
 dn ___,0,$000
 dn ___,0,$900
 dn ___,0,$000
 dn ___,0,$000
 dn ___,0,$000
 dn D_5,5,$00C
 dn ___,0,$000
 dn ___,0,$000
 dn ___,0,$000
 dn ___,0,$940
 dn ___,0,$000
 dn ___,0,$000
 dn ___,0,$000
 dn ___,0,$900
 dn ___,0,$000
 dn ___,0,$000
 dn ___,0,$000
 dn B_4,5,$00C
 dn ___,0,$000
 dn ___,0,$000
 dn ___,0,$000
 dn C_5,5,$00C
 dn ___,0,$000
 dn ___,0,$000
 dn ___,0,$000
 dn D_5,5,$00C
 dn ___,0,$000
 dn ___,0,$000
 dn ___,0,$000
 dn E_5,5,$00C
 dn ___,0,$000
 dn ___,0,$000
 dn ___,0,$000

P12:
 dn F_5,5,$00C
 dn ___,0,$000
 dn ___,0,$000
 dn ___,0,$000
 dn ___,0,$940
 dn ___,0,$000
 dn ___,0,$000
 dn ___,0,$000
 dn ___,0,$900
 dn ___,0,$000
 dn ___,0,$000
 dn ___,0,$000
 dn E_5,5,$00C
 dn ___,0,$000
 dn ___,0,$000
 dn ___,0,$000
 dn ___,0,$940
 dn ___,0,$000
 dn ___,0,$000
 dn ___,0,$000
 dn ___,0,$900
 dn ___,0,$000
 dn ___,0,$000
 dn ___,0,$000
 dn C_5,5,$00C
 dn ___,0,$000
 dn ___,0,$000
 dn ___,0,$000
 dn ___,0,$940
 dn ___,0,$000
 dn ___,0,$000
 dn ___,0,$000
 dn ___,0,$900
 dn ___,0,$000
 dn ___,0,$000
 dn ___,0,$000
 dn A_4,5,$00C
 dn ___,0,$000
 dn ___,0,$000
 dn ___,0,$000
 dn ___,0,$940
 dn ___,0,$000
 dn ___,0,$000
 dn ___,0,$000
 dn ___,0,$900
 dn ___,0,$000
 dn ___,0,$000
 dn ___,0,$000
 dn F_4,5,$00C
 dn ___,0,$000
 dn ___,0,$000
 dn ___,0,$000
 dn G_4,5,$00C
 dn ___,0,$000
 dn ___,0,$000
 dn ___,0,$000
 dn A_4,5,$00C
 dn ___,0,$000
 dn ___,0,$000
 dn ___,0,$000
 dn C_5,5,$00C
 dn ___,0,$000
 dn ___,0,$000
 dn ___,0,$000

P13:
 dn E_5,5,$00C
 dn ___,0,$000
 dn ___,0,$000
 dn ___,0,$000
 dn ___,0,$940
 dn ___,0,$000
 dn ___,0,$000
 dn ___,0,$000
 dn E_5,6,$C08
 dn ___,0,$000
 dn ___,0,$000
 dn ___,0,$000
 dn ___,0,$940
 dn ___,0,$000
 dn ___,0,$000
 dn ___,0,$000
 dn E_5,6,$C06
 dn ___,0,$000
 dn ___,0,$000
 dn ___,0,$000
 dn ___,0,$940
 dn ___,0,$000
 dn ___,0,$000
 dn ___,0,$000
 dn E_5,6,$C04
 dn ___,0,$000
 dn ___,0,$000
 dn ___,0,$000
 dn ___,0,$940
 dn ___,0,$000
 dn ___,0,$000
 dn ___,0,$000
 dn E_5,6,$C04
 dn D#5,0,$011
 dn D#5,0,$011
 dn D_5,0,$022
 dn D_5,0,$022
 dn D_5,0,$022
 dn C#5,0,$033
 dn C#5,0,$033
 dn C_5,0,$044
 dn C_5,0,$044
 dn C_5,0,$044
 dn B_4,0,$055
 dn B_4,0,$055
 dn A#4,0,$066
 dn A#4,0,$066
 dn A#4,0,$066
 dn A_4,7,$077
 dn A_4,0,$077
 dn A_4,0,$077
 dn G#4,0,$088
 dn G#4,0,$088
 dn G_4,0,$099
 dn G_4,0,$099
 dn G_4,0,$099
 dn F#4,0,$0AA
 dn F#4,0,$0AA
 dn F_4,0,$0BB
 dn F_4,0,$0BB
 dn F_4,0,$0BB
 dn E_4,0,$0CC
 dn E_4,0,$0CC
 dn E_4,0,$0CC

P14:
 dn F_5,5,$00C
 dn ___,0,$000
 dn ___,0,$000
 dn ___,0,$000
 dn ___,0,$940
 dn ___,0,$000
 dn ___,0,$000
 dn ___,0,$000
 dn A_5,5,$00C
 dn ___,0,$000
 dn ___,0,$000
 dn ___,0,$000
 dn C_6,5,$00C
 dn ___,0,$000
 dn ___,0,$000
 dn ___,0,$000
 dn ___,0,$940
 dn ___,0,$000
 dn ___,0,$000
 dn ___,0,$000
 dn D_6,5,$00C
 dn ___,0,$000
 dn ___,0,$000
 dn ___,0,$000
 dn E_6,5,$00C
 dn ___,0,$000
 dn ___,0,$000
 dn ___,0,$000
 dn ___,0,$940
 dn ___,0,$000
 dn ___,0,$000
 dn ___,0,$000
 dn E_6,6,$C04
 dn ___,0,$000
 dn ___,0,$000
 dn ___,0,$000
 dn ___,0,$940
 dn ___,0,$000
 dn ___,0,$000
 dn ___,0,$000
 dn E_6,6,$C02
 dn ___,0,$000
 dn ___,0,$000
 dn ___,0,$000
 dn ___,0,$940
 dn ___,0,$000
 dn ___,0,$000
 dn ___,0,$000
 dn G_6,5,$00C
 dn ___,0,$000
 dn ___,0,$000
 dn ___,0,$000
 dn E_6,5,$00C
 dn ___,0,$000
 dn ___,0,$000
 dn ___,0,$000
 dn D_6,5,$00C
 dn ___,0,$000
 dn ___,0,$000
 dn ___,0,$000
 dn C_6,5,$00C
 dn ___,0,$000
 dn ___,0,$000
 dn ___,0,$000

P15:
 dn D_4,1,$2FF
 dn D_3,2,$000
 dn ___,0,$C08
 dn ___,0,$000
 dn D_3,2,$000
 dn ___,0,$000
 dn ___,0,$C08
 dn ___,0,$000
 dn D_4,1,$2FF
 dn D_3,2,$000
 dn ___,0,$C08
 dn ___,0,$000
 dn D_3,2,$000
 dn ___,0,$C08
 dn D_3,2,$000
 dn ___,0,$C08
 dn D_4,1,$2FF
 dn D_3,2,$C08
 dn D_3,2,$000
 dn ___,0,$C08
 dn D_3,2,$000
 dn ___,0,$C08
 dn ___,0,$000
 dn ___,0,$000
 dn D_4,1,$2FF
 dn D_3,2,$000
 dn ___,0,$C08
 dn ___,0,$000
 dn D_3,2,$000
 dn ___,0,$C08
 dn ___,0,$000
 dn ___,0,$000
 dn D_4,1,$2FF
 dn D_3,2,$000
 dn ___,0,$C08
 dn ___,0,$000
 dn D_3,2,$000
 dn ___,0,$000
 dn ___,0,$C08
 dn ___,0,$000
 dn D_4,1,$2FF
 dn D_3,2,$000
 dn ___,0,$C08
 dn ___,0,$000
 dn D_3,2,$000
 dn ___,0,$C08
 dn D_3,2,$000
 dn ___,0,$C08
 dn D_4,1,$2FF
 dn D_3,2,$C08
 dn D_3,2,$000
 dn ___,0,$C08
 dn D_3,2,$000
 dn ___,0,$C08
 dn ___,0,$000
 dn ___,0,$000
 dn D_4,1,$2FF
 dn D_3,2,$000
 dn ___,0,$C08
 dn ___,0,$000
 dn D_3,2,$000
 dn ___,0,$C08
 dn ___,0,$000
 dn ___,0,$000

P16:
 dn C_4,1,$2FF
 dn C_3,2,$000
 dn ___,0,$C08
 dn ___,0,$000
 dn C_3,2,$000
 dn ___,0,$000
 dn ___,0,$C08
 dn ___,0,$000
 dn C_4,1,$2FF
 dn C_3,2,$000
 dn ___,0,$C08
 dn ___,0,$000
 dn C_3,2,$000
 dn ___,0,$C08
 dn C_3,2,$000
 dn ___,0,$C08
 dn C_4,1,$2FF
 dn C_3,2,$C08
 dn C_3,2,$000
 dn ___,0,$C08
 dn C_3,2,$000
 dn ___,0,$C08
 dn ___,0,$000
 dn ___,0,$000
 dn C_4,1,$2FF
 dn C_3,2,$000
 dn ___,0,$C08
 dn ___,0,$000
 dn C_3,2,$000
 dn ___,0,$C08
 dn ___,0,$000
 dn ___,0,$000
 dn C_4,1,$2FF
 dn C_3,2,$000
 dn ___,0,$C08
 dn ___,0,$000
 dn C_3,2,$000
 dn ___,0,$000
 dn ___,0,$C08
 dn ___,0,$000
 dn C_4,1,$2FF
 dn C_3,2,$000
 dn ___,0,$C08
 dn ___,0,$000
 dn C_3,2,$000
 dn ___,0,$C08
 dn C_3,2,$000
 dn ___,0,$C08
 dn C_4,1,$2FF
 dn C_3,2,$C08
 dn C_3,2,$000
 dn ___,0,$C08
 dn C_3,2,$000
 dn ___,0,$C08
 dn ___,0,$000
 dn ___,0,$000
 dn C_4,1,$2FF
 dn C_3,2,$000
 dn ___,0,$C08
 dn ___,0,$000
 dn C_3,2,$000
 dn ___,0,$C08
 dn ___,0,$000
 dn ___,0,$000

P17:
 dn B_5,5,$00C
 dn ___,0,$000
 dn ___,0,$000
 dn ___,0,$000
 dn ___,0,$940
 dn ___,0,$000
 dn ___,0,$000
 dn ___,0,$000
 dn C_6,5,$00C
 dn ___,0,$000
 dn ___,0,$000
 dn ___,0,$000
 dn D_6,5,$00C
 dn ___,0,$000
 dn ___,0,$000
 dn ___,0,$000
 dn ___,0,$940
 dn ___,0,$000
 dn ___,0,$000
 dn ___,0,$000
 dn B_5,5,$00C
 dn ___,0,$000
 dn ___,0,$000
 dn ___,0,$000
 dn G_5,5,$00C
 dn ___,0,$000
 dn ___,0,$000
 dn ___,0,$000
 dn ___,0,$940
 dn ___,0,$000
 dn ___,0,$000
 dn ___,0,$000
 dn G_5,6,$C04
 dn ___,0,$000
 dn ___,0,$000
 dn ___,0,$000
 dn ___,0,$940
 dn ___,0,$000
 dn ___,0,$000
 dn ___,0,$000
 dn G_5,6,$C02
 dn ___,0,$000
 dn ___,0,$000
 dn ___,0,$000
 dn ___,0,$940
 dn ___,0,$000
 dn ___,0,$000
 dn ___,0,$000
 dn C_6,5,$00C
 dn ___,0,$000
 dn ___,0,$000
 dn ___,0,$000
 dn D_6,5,$00C
 dn ___,0,$000
 dn ___,0,$000
 dn ___,0,$000
 dn E_6,5,$00C
 dn ___,0,$000
 dn ___,0,$000
 dn ___,0,$000
 dn G_6,5,$00C
 dn ___,0,$000
 dn ___,0,$000
 dn ___,0,$000

P18:
 dn A_6,5,$00C
 dn ___,0,$000
 dn ___,0,$000
 dn ___,0,$000
 dn ___,0,$940
 dn ___,0,$000
 dn ___,0,$000
 dn ___,0,$000
 dn G_6,5,$00C
 dn ___,0,$000
 dn ___,0,$000
 dn ___,0,$000
 dn F_6,5,$00C
 dn ___,0,$000
 dn ___,0,$000
 dn ___,0,$000
 dn ___,0,$940
 dn ___,0,$000
 dn ___,0,$000
 dn ___,0,$000
 dn E_6,5,$00C
 dn F_6,5,$000
 dn E_6,5,$000
 dn ___,0,$000
 dn D_6,5,$00C
 dn ___,0,$000
 dn ___,0,$000
 dn ___,0,$000
 dn ___,0,$940
 dn ___,0,$000
 dn ___,0,$000
 dn ___,0,$000
 dn D_6,6,$C04
 dn ___,0,$000
 dn ___,0,$000
 dn ___,0,$000
 dn ___,0,$940
 dn ___,0,$000
 dn ___,0,$000
 dn ___,0,$000
 dn D_6,6,$C02
 dn ___,0,$000
 dn ___,0,$000
 dn ___,0,$000
 dn ___,0,$940
 dn ___,0,$000
 dn ___,0,$000
 dn ___,0,$000
 dn D_6,5,$00C
 dn ___,0,$000
 dn ___,0,$000
 dn ___,0,$000
 dn E_6,5,$00C
 dn ___,0,$000
 dn ___,0,$000
 dn ___,0,$000
 dn F_6,5,$00C
 dn ___,0,$000
 dn ___,0,$000
 dn ___,0,$000
 dn G_6,5,$00C
 dn ___,0,$000
 dn ___,0,$000
 dn ___,0,$000

P19:
 dn E_6,5,$00C
 dn ___,0,$000
 dn ___,0,$000
 dn ___,0,$000
 dn ___,0,$940
 dn ___,0,$000
 dn ___,0,$000
 dn ___,0,$000
 dn E_6,6,$C08
 dn ___,0,$000
 dn ___,0,$000
 dn ___,0,$000
 dn ___,0,$940
 dn ___,0,$000
 dn ___,0,$000
 dn ___,0,$000
 dn E_6,6,$C06
 dn ___,0,$000
 dn ___,0,$000
 dn ___,0,$000
 dn ___,0,$940
 dn ___,0,$000
 dn ___,0,$000
 dn ___,0,$000
 dn E_6,6,$C04
 dn ___,0,$000
 dn ___,0,$000
 dn ___,0,$000
 dn ___,0,$940
 dn ___,0,$000
 dn ___,0,$000
 dn ___,0,$000
 dn E_6,6,$C04
 dn D#6,0,$011
 dn D#6,0,$011
 dn D_6,0,$022
 dn D_6,0,$022
 dn D_6,0,$022
 dn C#6,0,$033
 dn C#6,0,$033
 dn C_6,0,$044
 dn C_6,0,$044
 dn C_6,0,$044
 dn B_5,0,$055
 dn B_5,0,$055
 dn A#5,0,$066
 dn A#5,0,$066
 dn A#5,0,$066
 dn A_5,7,$077
 dn A_5,0,$077
 dn A_5,0,$077
 dn G#5,0,$088
 dn G#5,0,$088
 dn G_5,0,$099
 dn G_5,0,$099
 dn G_5,0,$099
 dn F#5,0,$0AA
 dn F#5,0,$0AA
 dn F_5,0,$0BB
 dn F_5,0,$0BB
 dn F_5,0,$0BB
 dn E_5,0,$0CC
 dn E_5,0,$0CC
 dn E_5,0,$0CC

P20:
 dn F_5,1,$047
 dn F_5,2,$07B
 dn F_5,1,$047
 dn F_5,2,$07B
 dn F_5,1,$047
 dn F_5,2,$07B
 dn F_5,1,$047
 dn F_5,2,$07B
 dn F_5,1,$047
 dn F_5,2,$07B
 dn F_5,3,$047
 dn F_5,4,$07B
 dn F_5,1,$047
 dn F_5,2,$07B
 dn F_5,1,$047
 dn F_5,2,$07B
 dn F_5,1,$047
 dn F_5,2,$07B
 dn F_5,1,$047
 dn F_5,2,$07B
 dn F_5,1,$047
 dn F_5,2,$07B
 dn F_5,3,$047
 dn F_5,4,$07B
 dn F_5,1,$047
 dn F_5,2,$07B
 dn F_5,1,$047
 dn F_5,2,$07B
 dn F_5,1,$047
 dn F_5,2,$07B
 dn F_5,1,$047
 dn F_5,2,$07B
 dn F_5,1,$047
 dn F_5,2,$07B
 dn F_5,1,$047
 dn F_5,2,$07B
 dn F_5,1,$047
 dn F_5,2,$07B
 dn F_5,1,$047
 dn F_5,2,$07B
 dn F_5,1,$047
 dn F_5,2,$07B
 dn F_5,3,$047
 dn F_5,4,$07B
 dn F_5,1,$047
 dn F_5,2,$07B
 dn F_5,1,$047
 dn F_5,2,$07B
 dn F_5,1,$047
 dn F_5,2,$07B
 dn F_5,1,$047
 dn F_5,2,$07B
 dn F_5,1,$047
 dn F_5,2,$07B
 dn F_5,3,$047
 dn F_5,4,$07B
 dn F_5,1,$047
 dn F_5,2,$07B
 dn F_5,1,$047
 dn F_5,2,$07B
 dn F_5,1,$047
 dn F_5,2,$07B
 dn F_5,1,$047
 dn F_5,2,$07B

P21:
 dn E_5,1,$037
 dn E_5,2,$07A
 dn E_5,1,$037
 dn E_5,2,$07A
 dn E_5,1,$037
 dn E_5,2,$07A
 dn E_5,1,$037
 dn E_5,2,$07A
 dn E_5,1,$037
 dn E_5,2,$07A
 dn E_5,3,$037
 dn E_5,4,$07A
 dn E_5,1,$037
 dn E_5,2,$07A
 dn E_5,1,$037
 dn E_5,2,$07A
 dn E_5,1,$037
 dn E_5,2,$07A
 dn E_5,1,$037
 dn E_5,2,$07A
 dn E_5,1,$037
 dn E_5,2,$07A
 dn E_5,3,$037
 dn E_5,4,$07A
 dn E_5,1,$037
 dn E_5,2,$07A
 dn E_5,1,$037
 dn E_5,2,$07A
 dn E_5,1,$037
 dn E_5,2,$07A
 dn E_5,1,$037
 dn E_5,2,$07A
 dn E_5,1,$037
 dn E_5,2,$07A
 dn E_5,1,$037
 dn E_5,2,$07A
 dn E_5,1,$037
 dn E_5,2,$07A
 dn E_5,1,$037
 dn E_5,2,$07A
 dn E_5,1,$037
 dn E_5,2,$07A
 dn E_5,3,$037
 dn E_5,4,$07A
 dn E_5,1,$037
 dn E_5,2,$07A
 dn E_5,1,$037
 dn E_5,2,$07A
 dn E_5,1,$037
 dn E_5,2,$07A
 dn E_5,1,$037
 dn E_5,2,$07A
 dn E_5,1,$037
 dn E_5,2,$07A
 dn E_5,3,$037
 dn E_5,4,$07A
 dn E_5,1,$037
 dn E_5,2,$07A
 dn E_5,1,$037
 dn E_5,2,$07A
 dn E_5,1,$037
 dn E_5,2,$07A
 dn E_5,1,$037
 dn E_5,2,$07A

P22:
 dn D_5,1,$037
 dn D_5,2,$07A
 dn D_5,1,$037
 dn D_5,2,$07A
 dn D_5,1,$037
 dn D_5,2,$07A
 dn D_5,1,$037
 dn D_5,2,$07A
 dn D_5,1,$037
 dn D_5,2,$07A
 dn D_5,3,$037
 dn D_5,4,$07A
 dn D_5,1,$037
 dn D_5,2,$07A
 dn D_5,1,$037
 dn D_5,2,$07A
 dn D_5,1,$037
 dn D_5,2,$07A
 dn D_5,1,$037
 dn D_5,2,$07A
 dn D_5,1,$037
 dn D_5,2,$07A
 dn D_5,3,$037
 dn D_5,4,$07A
 dn D_5,1,$037
 dn D_5,2,$07A
 dn D_5,1,$037
 dn D_5,2,$07A
 dn D_5,1,$037
 dn D_5,2,$07A
 dn D_5,1,$037
 dn D_5,2,$07A
 dn D_5,1,$037
 dn D_5,2,$07A
 dn D_5,1,$037
 dn D_5,2,$07A
 dn D_5,1,$037
 dn D_5,2,$07A
 dn D_5,1,$037
 dn D_5,2,$07A
 dn D_5,1,$037
 dn D_5,2,$07A
 dn D_5,3,$037
 dn D_5,4,$07A
 dn D_5,1,$037
 dn D_5,2,$07A
 dn D_5,1,$037
 dn D_5,2,$07A
 dn D_5,1,$037
 dn D_5,2,$07A
 dn D_5,1,$037
 dn D_5,2,$07A
 dn D_5,1,$037
 dn D_5,2,$07A
 dn D_5,3,$037
 dn D_5,4,$07A
 dn D_5,1,$037
 dn D_5,2,$07A
 dn D_5,1,$037
 dn D_5,2,$07A
 dn D_5,1,$037
 dn D_5,2,$07A
 dn D_5,1,$037
 dn D_5,2,$07A

P23:
 dn C_5,1,$047
 dn C_5,2,$07B
 dn C_5,1,$047
 dn C_5,2,$07B
 dn C_5,1,$047
 dn C_5,2,$07B
 dn C_5,1,$047
 dn C_5,2,$07B
 dn C_5,1,$047
 dn C_5,2,$07B
 dn C_5,3,$047
 dn C_5,4,$07B
 dn C_5,1,$047
 dn C_5,2,$07B
 dn C_5,1,$047
 dn C_5,2,$07B
 dn C_5,1,$047
 dn C_5,2,$07B
 dn C_5,1,$047
 dn C_5,2,$07B
 dn C_5,1,$047
 dn C_5,2,$07B
 dn C_5,3,$047
 dn C_5,4,$07B
 dn C_5,1,$047
 dn C_5,2,$07B
 dn C_5,1,$047
 dn C_5,2,$07B
 dn C_5,1,$047
 dn C_5,2,$07B
 dn C_5,1,$047
 dn C_5,2,$07B
 dn C_5,1,$047
 dn C_5,2,$07B
 dn C_5,1,$047
 dn C_5,2,$07B
 dn C_5,1,$047
 dn C_5,2,$07B
 dn C_5,1,$047
 dn C_5,2,$07B
 dn C_5,1,$047
 dn C_5,2,$07B
 dn C_5,3,$047
 dn C_5,4,$07B
 dn C_5,1,$047
 dn C_5,2,$07B
 dn C_5,1,$047
 dn C_5,2,$07B
 dn C_5,1,$047
 dn C_5,2,$07B
 dn C_5,1,$047
 dn C_5,2,$07B
 dn C_5,1,$047
 dn C_5,2,$07B
 dn C_5,3,$047
 dn C_5,4,$07B
 dn C_5,1,$047
 dn C_5,2,$07B
 dn C_5,1,$047
 dn C_5,2,$07B
 dn C_5,1,$047
 dn C_5,2,$07B
 dn C_5,1,$047
 dn C_5,2,$07B

P25:
 dn F_7,1,$000
 dn ___,0,$000
 dn A_7,2,$000
 dn ___,0,$000
 dn F_7,1,$000
 dn ___,0,$000
 dn F_7,1,$000
 dn ___,0,$000
 dn F_7,1,$000
 dn ___,0,$000
 dn A_7,2,$000
 dn ___,0,$000
 dn B_6,3,$000
 dn ___,0,$000
 dn ___,0,$000
 dn ___,0,$000
 dn B_6,3,$C06
 dn ___,0,$000
 dn ___,0,$000
 dn ___,0,$000
 dn B_6,3,$C04
 dn ___,0,$000
 dn ___,0,$000
 dn ___,0,$000
 dn F_7,1,$000
 dn ___,0,$000
 dn A_7,2,$000
 dn ___,0,$000
 dn F_7,1,$000
 dn ___,0,$000
 dn F_7,1,$000
 dn ___,0,$000
 dn F_7,1,$000
 dn ___,0,$000
 dn A_7,2,$000
 dn ___,0,$000
 dn F_7,1,$000
 dn ___,0,$000
 dn F_7,1,$000
 dn ___,0,$000
 dn F_7,1,$000
 dn ___,0,$000
 dn A_7,2,$000
 dn ___,0,$000
 dn B_6,3,$000
 dn ___,0,$000
 dn ___,0,$000
 dn ___,0,$000
 dn B_6,3,$C06
 dn ___,0,$000
 dn ___,0,$000
 dn ___,0,$000
 dn B_6,3,$C04
 dn ___,0,$000
 dn ___,0,$000
 dn ___,0,$000
 dn B_6,3,$000
 dn ___,0,$000
 dn ___,0,$000
 dn ___,0,$000
 dn B_6,3,$000
 dn ___,0,$000
 dn ___,0,$000
 dn ___,0,$B05

P24:
 dn F_7,1,$000
 dn ___,0,$000
 dn A_7,2,$000
 dn ___,0,$000
 dn F_7,1,$000
 dn ___,0,$000
 dn F_7,1,$000
 dn ___,0,$000
 dn F_7,1,$000
 dn ___,0,$000
 dn A_7,2,$000
 dn ___,0,$000
 dn B_6,3,$000
 dn ___,0,$000
 dn ___,0,$000
 dn ___,0,$000
 dn B_6,3,$C06
 dn ___,0,$000
 dn ___,0,$000
 dn ___,0,$000
 dn B_6,3,$C04
 dn ___,0,$000
 dn ___,0,$000
 dn ___,0,$000
 dn F_7,1,$000
 dn ___,0,$000
 dn A_7,2,$000
 dn ___,0,$000
 dn F_7,1,$000
 dn ___,0,$000
 dn F_7,1,$000
 dn ___,0,$000
 dn F_7,1,$000
 dn ___,0,$000
 dn A_7,2,$000
 dn ___,0,$000
 dn F_7,1,$000
 dn ___,0,$000
 dn F_7,1,$000
 dn ___,0,$000
 dn F_7,1,$000
 dn ___,0,$000
 dn A_7,2,$000
 dn ___,0,$000
 dn B_6,3,$000
 dn ___,0,$000
 dn ___,0,$000
 dn ___,0,$000
 dn B_6,3,$C06
 dn ___,0,$000
 dn ___,0,$000
 dn ___,0,$000
 dn B_6,3,$C04
 dn ___,0,$000
 dn ___,0,$000
 dn ___,0,$000
 dn F_7,1,$000
 dn ___,0,$000
 dn A_7,2,$000
 dn ___,0,$000
 dn F_7,1,$000
 dn ___,0,$000
 dn F_7,1,$000
 dn ___,0,$000

itNoiseSP1:
 dn ___,0,$000
 dn 22,0,$000
 dn 5,3,$000
 dn 5,0,$000
 dn 5,0,$000
 dn 5,0,$000
 dn 5,0,$000
 dn ___,0,$000
 dn ___,0,$000
 dn ___,0,$000
 dn ___,0,$000
 dn ___,0,$000
 dn ___,0,$000
 dn ___,0,$000
 dn ___,0,$000
 dn ___,0,$000
 dn ___,0,$000
 dn ___,0,$000
 dn ___,0,$000
 dn ___,0,$000
 dn ___,0,$000
 dn ___,0,$000
 dn ___,0,$000
 dn ___,0,$000
 dn ___,0,$000
 dn ___,0,$000
 dn ___,0,$000
 dn ___,0,$000
 dn ___,0,$000
 dn ___,0,$000
 dn ___,0,$000
 dn ___,1,$000

itNoiseSP3:
 dn ___,0,$000
 dn 26,0,$000
 dn 44,3,$000
 dn 44,0,$000
 dn 44,0,$000
 dn 44,0,$000
 dn 44,0,$000
 dn ___,0,$000
 dn ___,0,$000
 dn ___,0,$000
 dn ___,0,$000
 dn ___,0,$000
 dn ___,0,$000
 dn ___,0,$000
 dn ___,0,$000
 dn ___,0,$000
 dn ___,0,$000
 dn ___,0,$000
 dn ___,0,$000
 dn ___,0,$000
 dn ___,0,$000
 dn ___,0,$000
 dn ___,0,$000
 dn ___,0,$000
 dn ___,0,$000
 dn ___,0,$000
 dn ___,0,$000
 dn ___,0,$000
 dn ___,0,$000
 dn ___,0,$000
 dn ___,0,$000
 dn ___,1,$000

duty_instruments:
itSquareinst1:
db 8
db 64
db 160
dw 0
db 128

itSquareinst2:
db 8
db 128
db 112
dw 0
db 128

itSquareinst3:
db 8
db 64
db 96
dw 0
db 128

itSquareinst4:
db 8
db 128
db 80
dw 0
db 128

itSquareinst5:
db 8
db 128
db 245
dw 0
db 128

itSquareinst6:
db 8
db 128
db 64
dw 0
db 128

itSquareinst7:
db 8
db 128
db 32
dw 0
db 128



wave_instruments:
itWaveinst1:
db 250
db 32
db 0
dw 0
db 128

itWaveinst2:
db 0
db 32
db 1
dw 0
db 128



noise_instruments:
itNoiseinst1:
db 145
dw itNoiseSP1
db 0
ds 2

itNoiseinst2:
db 83
dw 0
db 0
ds 2

itNoiseinst3:
db 225
dw itNoiseSP3
db 0
ds 2

itNoiseinst4:
db 16
dw 0
db 0
ds 2



routines:
__hUGE_Routine_0:

__end_hUGE_Routine_0:
ret

__hUGE_Routine_1:

__end_hUGE_Routine_1:
ret

__hUGE_Routine_2:

__end_hUGE_Routine_2:
ret

__hUGE_Routine_3:

__end_hUGE_Routine_3:
ret

__hUGE_Routine_4:

__end_hUGE_Routine_4:
ret

__hUGE_Routine_5:

__end_hUGE_Routine_5:
ret

__hUGE_Routine_6:

__end_hUGE_Routine_6:
ret

__hUGE_Routine_7:

__end_hUGE_Routine_7:
ret

__hUGE_Routine_8:

__end_hUGE_Routine_8:
ret

__hUGE_Routine_9:

__end_hUGE_Routine_9:
ret

__hUGE_Routine_10:

__end_hUGE_Routine_10:
ret

__hUGE_Routine_11:

__end_hUGE_Routine_11:
ret

__hUGE_Routine_12:

__end_hUGE_Routine_12:
ret

__hUGE_Routine_13:

__end_hUGE_Routine_13:
ret

__hUGE_Routine_14:

__end_hUGE_Routine_14:
ret

__hUGE_Routine_15:

__end_hUGE_Routine_15:
ret

waves:
wave0: db 0,0,0,0,255,255,255,255,0,0,0,0,255,255,255,255
wave1: db 138,205,239,255,237,185,116,16,138,205,239,255,0,0,0,0

